<?xml version="1.0" encoding="UTF-8"?>
<!DOCTYPE svg PUBLIC "-//W3C//DTD SVG 1.1//EN" "http://www.w3.org/Graphics/SVG/1.1/DTD/svg11.dtd">
<!-- Creator: CorelDRAW 2018 (64 Bit) -->
<svg xmlns="http://www.w3.org/2000/svg" xml:space="preserve" width="18mm" height="18mm" version="1.1" style="shape-rendering:geometricPrecision; text-rendering:geometricPrecision; image-rendering:optimizeQuality; fill-rule:evenodd; clip-rule:evenodd"
viewBox="0 0 185.5 185.5"
 xmlns:xlink="http://www.w3.org/1999/xlink">
 <defs>
  <style type="text/css">
   <![CDATA[
    .fil2 {fill:none}
    .fil0 {fill:#3FA14C}
    .fil1 {fill:#CF3034}
   ]]>
  </style>
   <clipPath id="id0">
    <path d="M-0 0l185.5 0 0 185.5 -185.5 0 0 -185.5z"/>
   </clipPath>
 </defs>
 <g id="Layer_x0020_1">
  <metadata id="CorelCorpID_0Corel-Layer"/>
  <g>
  </g>
  <g style="clip-path:url(#id0)">
   <g>
    <g id="_1893289448704">
     <path class="fil0" d="M161.46 133.61c0,2.2 -1.83,4.03 -4.03,4.03l-31.88 0c-2.2,0 -4.03,-1.83 -4.03,-4.03l0 -31.88c0,-2.2 1.83,-4.03 4.03,-4.03l31.88 0c2.2,0 4.03,1.83 4.03,4.03l0 31.88z"/>
     <path class="fil0" d="M113.82 38.34c0,2.2 -1.83,4.03 -4.03,4.03l-31.88 0c-2.2,0 -4.03,-1.83 -4.03,-4.03l0 -32.25c0,-2.2 1.83,-4.03 4.03,-4.03l31.88 0c2.2,0 4.03,1.83 4.03,4.03l0 32.25z"/>
     <path class="fil0" d="M161.46 38.34c0,2.2 -1.83,4.03 -4.03,4.03l-31.88 0c-2.2,0 -4.03,-1.83 -4.03,-4.03l0 -32.25c0,-2.2 1.83,-4.03 4.03,-4.03l31.88 0c2.2,0 4.03,1.83 4.03,4.03l0 32.25z"/>
     <path class="fil0" d="M66.18 85.97c0,2.2 -1.83,4.03 -4.03,4.03l-31.88 0c-2.2,0 -4.03,-1.83 -4.03,-4.03l0 -32.25c0,-2.2 1.83,-4.03 4.03,-4.03l31.88 0c2.2,0 4.03,1.83 4.03,4.03l0 32.25z"/>
     <path class="fil0" d="M113.82 85.97c0,2.2 -1.83,4.03 -4.03,4.03l-31.88 0c-2.2,0 -4.03,-1.83 -4.03,-4.03l0 -32.25c0,-2.2 1.83,-4.03 4.03,-4.03l31.88 0c2.2,0 4.03,1.83 4.03,4.03l0 32.25z"/>
     <path class="fil0" d="M66.18 133.61c0,2.2 -1.83,4.03 -4.03,4.03l-31.88 0c-2.2,0 -4.03,-1.83 -4.03,-4.03l0 -31.88c0,-2.2 1.83,-4.03 4.03,-4.03l31.88 0c2.2,0 4.03,1.83 4.03,4.03l0 31.88z"/>
     <path class="fil0" d="M113.82 133.61c0,2.2 -1.83,4.03 -4.03,4.03l-31.88 0c-2.2,0 -4.03,-1.83 -4.03,-4.03l0 -31.88c0,-2.2 1.83,-4.03 4.03,-4.03l31.88 0c2.2,0 4.03,1.83 4.03,4.03l0 31.88z"/>
     <path class="fil0" d="M66.18 181.24c0,2.2 -1.83,4.03 -4.03,4.03l-31.88 -0c-2.2,0 -4.03,-1.83 -4.03,-4.03l0 -31.88c0,-2.2 1.83,-4.03 4.03,-4.03l31.88 0c2.2,0 4.03,1.83 4.03,4.03l0 31.88z"/>
     <path class="fil0" d="M113.82 181.24c0,2.2 -1.83,4.03 -4.03,4.03l-31.88 -0c-2.2,0 -4.03,-1.83 -4.03,-4.03l0 -31.88c0,-2.2 1.83,-4.03 4.03,-4.03l31.88 0c2.2,0 4.03,1.83 4.03,4.03l0 31.88z"/>
     <path class="fil1" d="M68.02 22.21c0,12.09 -9.89,21.99 -21.98,21.99 -12.09,0 -21.99,-9.89 -21.99,-21.99 0,-12.09 9.89,-21.99 21.99,-21.99 12.46,0 21.98,9.89 21.98,21.99z"/>
    </g>
   </g>
  </g>
  <polygon class="fil2" points="-0,0 185.5,0 185.5,185.5 -0,185.5 "/>
 </g>
</svg>
